<svg width="180" height="180" viewBox="0 0 180 180" fill="none" xmlns="http://www.w3.org/2000/svg">
<rect x="51.5355" y="90.4265" width="55" height="55" rx="4.5" transform="rotate(-45 51.5355 90.4265)" fill="#FFE600" stroke="black" stroke-width="5"/>
<path d="M53.5294 130.942H54.7129V138H53.4284L49.4304 132.847V138H48.2325V130.942H49.4304L53.5294 136.21V130.942ZM67.3968 135.806H63.1823C63.2112 136.191 63.3892 136.504 63.7164 136.744C64.0435 136.985 64.4236 137.105 64.8566 137.105C65.5397 137.105 66.0497 136.893 66.3865 136.47L67.0359 137.177C66.4586 137.784 65.7033 138.087 64.77 138.087C64.0002 138.087 63.3555 137.832 62.8359 137.322C62.3164 136.812 62.0566 136.138 62.0566 135.301C62.0566 134.483 62.3212 133.819 62.8504 133.309C63.3796 132.799 64.0194 132.544 64.77 132.544C65.5205 132.544 66.1459 132.77 66.6463 133.223C67.1466 133.675 67.3968 134.276 67.3968 135.027V135.806ZM66.271 134.911C66.271 134.478 66.1315 134.137 65.8524 133.887C65.583 133.636 65.2318 133.511 64.7988 133.511C64.3658 133.511 63.9858 133.641 63.6586 133.901C63.3411 134.161 63.1823 134.498 63.1823 134.911H66.271ZM75.9166 133.54V136.268C75.9166 136.528 75.9839 136.735 76.1186 136.889C76.263 137.033 76.4554 137.105 76.6959 137.105C76.9173 137.105 77.1482 136.985 77.3887 136.744L77.8506 137.553C77.4465 137.909 77.0087 138.087 76.5372 138.087C76.0465 138.087 75.6327 137.918 75.2959 137.581C74.9592 137.235 74.7908 136.788 74.7908 136.239V133.54H74.1124V132.631H74.7908V130.942H75.9166V132.631H77.331V133.54H75.9166ZM86.0212 132.631H87.4356V133.54H86.0212V138H84.8954V133.54H84.2171V132.631H84.8954V132.212C84.8954 131.664 85.0638 131.221 85.4006 130.885C85.7373 130.538 86.1511 130.365 86.6418 130.365C87.1325 130.365 87.5703 130.543 87.9552 130.899L87.4933 131.693C87.2624 131.462 87.0315 131.346 86.8006 131.346C86.56 131.346 86.3676 131.423 86.2232 131.577C86.0885 131.722 86.0212 131.924 86.0212 132.184V132.631ZM95.5379 138H94.4121V130.509H95.5379V138ZM105.536 137.076C106.026 137.076 106.43 136.913 106.748 136.586C107.075 136.258 107.239 135.835 107.239 135.315C107.239 134.796 107.075 134.373 106.748 134.045C106.43 133.718 106.026 133.555 105.536 133.555C105.045 133.555 104.641 133.718 104.323 134.045C104.006 134.373 103.847 134.796 103.847 135.315C103.847 135.835 104.006 136.254 104.323 136.571C104.641 136.908 105.045 137.076 105.536 137.076ZM105.536 138.087C104.727 138.087 104.054 137.822 103.515 137.293C102.976 136.754 102.707 136.095 102.707 135.315C102.707 134.536 102.976 133.882 103.515 133.353C104.054 132.814 104.727 132.544 105.536 132.544C106.344 132.544 107.017 132.814 107.556 133.353C108.095 133.882 108.364 134.536 108.364 135.315C108.364 136.066 108.095 136.72 107.556 137.278C107.017 137.817 106.344 138.087 105.536 138.087ZM119.276 132.631H120.416V138H119.276V137.019C119.093 137.346 118.838 137.605 118.511 137.798C118.194 137.99 117.852 138.087 117.487 138.087C116.871 138.087 116.38 137.899 116.014 137.524C115.649 137.148 115.466 136.614 115.466 135.922V132.631H116.592V135.575C116.592 136.566 117.001 137.062 117.818 137.062C118.232 137.062 118.579 136.927 118.858 136.658C119.137 136.388 119.276 136.013 119.276 135.532V132.631ZM128.777 132.631L129.931 134.392L131.129 132.631H132.472L130.581 135.258L132.544 138H131.158L129.874 136.21L128.618 138H127.29L129.21 135.258L127.391 132.631H128.777Z" fill="black"/>
<path d="M68.685 130V59.44H78.381L87.981 96.208L88.845 99.472H89.421V59.44H98.925V130H90.189L79.629 93.232L78.765 89.968H78.189V130H68.685Z" fill="#FF0000"/>
<path d="M93.12 130V59.44H117.792V70.096H103.488V88.624H113.088V99.28H103.488V130H93.12Z" fill="#3757AA"/>
</svg>
